<svg width="64" height="64" viewBox="0 0 64 64" fill="none" xmlns="http://www.w3.org/2000/svg">
    <rect width="64" height="64" rx="18" fill="#0F172A"/>
    <path d="M14 22.5A5.5 5.5 0 0 1 19.5 17H28a4 4 0 0 1 2.9 1.24l2.86 3.02a4 4 0 0 0 2.9 1.23h7.84A5.5 5.5 0 0 1 50 28v16.5A5.5 5.5 0 0 1 44.5 50h-25A5.5 5.5 0 0 1 14 44.5v-22Z" fill="#38BDF8" opacity="0.3"/>
    <path d="M14 28.5A5 5 0 0 1 19 23.5h26a5 5 0 0 1 4.9 6.02l-2.7 12A5 5 0 0 1 42.32 45.5H16.68a5 5 0 0 1-4.88-5.99l2.4-11A5 5 0 0 1 19.08 23.5H26" fill="#38BDF8"/>
    <path d="M25 32H39M25 37H34" stroke="white" stroke-width="3" stroke-linecap="round"/>
</svg>
